<svg xmlns="http://www.w3.org/2000/svg" xmlns:xlink="http://www.w3.org/1999/xlink" xmlns:serif="http://www.serif.com/" viewBox="0 0 32 40" version="1.1" xml:space="preserve" style="" x="0px" y="0px" fill-rule="evenodd" clip-rule="evenodd" stroke-linejoin="round" stroke-miterlimit="2"><g transform="matrix(1,0,0,1,0,-104)"><g transform="matrix(0.21157,0,0,0.177778,0,104)"><rect x="0" y="0" width="151.25" height="180" style="" fill="none"/><clipPath id="a"><rect x="0" y="0" width="151.25" height="180"/></clipPath><g clip-path="url(#a)"><g transform="matrix(3.34218,3.97748,-3.34218,3.97748,-145.77,-668.616)"><path d="M119,58C119,57.448 119.448,57 120,57C120.552,57 121,56.552 121,56C121,55.448 120.552,55 120,55C118.344,55 117,56.344 117,58C117,58.552 117.448,59 118,59C118.552,59 119,58.552 119,58Z"/></g><g transform="matrix(10.0266,11.9324,-10.0266,11.9324,-560.201,-2084.6)"><path d="M118.333,58C118.333,57.539 118.521,57.121 118.825,56.819C119.126,56.519 119.542,56.333 120,56.333C120.184,56.333 120.333,56.184 120.333,56C120.333,55.816 120.184,55.667 120,55.667C119.358,55.667 118.777,55.926 118.355,56.346C117.93,56.769 117.667,57.354 117.667,58C117.667,58.184 117.816,58.333 118,58.333C118.184,58.333 118.333,58.184 118.333,58Z"/></g><g transform="matrix(4.72656,0,0,5.625,-505.742,-292.5)"><circle cx="120" cy="61" r="1"/></g><g transform="matrix(4.72656,0,0,4.6875,-9.45312,60)"><path d="M32,15.4C32,13.412 30.657,11.8 29,11.8C28.356,11.8 27.644,11.8 27,11.8C25.343,11.8 24,13.412 24,15.4C24,15.795 24,16.205 24,16.6C24,18.588 25.343,20.2 27,20.2C27.644,20.2 28.356,20.2 29,20.2C30.657,20.2 32,18.588 32,16.6L32,15.4ZM30,15.4L30,16.6C30,17.263 29.552,17.8 29,17.8C28.356,17.8 27.644,17.8 27,17.8C26.448,17.8 26,17.263 26,16.6C26,16.205 26,15.795 26,15.4C26,14.737 26.448,14.2 27,14.2C27.644,14.2 28.356,14.2 29,14.2C29.552,14.2 30,14.737 30,15.4Z"/></g><g transform="matrix(4.72656,0,0,5.625,-245.781,5.625)"><path d="M73.095,11L56.905,11C55.314,11 54,12.33 54,14C54,15 54,16 54,16C54,16.552 54.448,17 55,17L75,17C75.552,17 76,16.552 76,16L76,14C76,12.33 74.686,11 73.095,11ZM56.905,13C56.391,13 56,13.461 56,14L56,15L74,15L74,14C74,13.461 73.609,13 73.095,13L56.905,13Z"/></g><g transform="matrix(4.72656,0,0,5.625,0,-585)"><path d="M27,130.5C27,129.948 26.552,129.5 26,129.5L25,129.5C24.448,129.5 24,129.052 24,128.5C24,128.171 24,127.829 24,127.5C24,126.948 24.448,126.5 25,126.5C25,126.5 26,126.5 26,126.5C26.552,126.5 27,126.052 27,125.5L27,122.867C27,122.103 26.691,121.37 26.136,120.83C25.592,120.3 24.854,120 24.083,120C18.56,120 3,120 3,120C2.448,120 2,120.448 2,121L2,133.133C2,133.897 2.309,134.63 2.864,135.17C3.408,135.7 4.146,136 4.917,136C9.248,136 19.752,136 24.083,136C24.854,136 25.592,135.7 26.136,135.17C26.691,134.63 27,133.897 27,133.133C27,133.133 27,130.5 27,130.5ZM4,122L4,133.133C4,133.36 4.094,133.577 4.259,133.737C4.433,133.907 4.67,134 4.917,134C9.248,134 19.752,134 24.083,134C24.33,134 24.567,133.907 24.741,133.737C24.906,133.577 25,133.36 25,133.133L25,131.5L25,131.5C23.343,131.5 22,130.157 22,128.5C22,128.171 22,127.829 22,127.5C22,125.843 23.343,124.5 25,124.5L25,124.5L25,122.867C25,122.64 24.906,122.423 24.741,122.263C24.567,122.093 24.33,122 24.083,122L4,122Z"/></g></g></g></g><text x="0" y="47" fill="#000000" font-size="5px" font-weight="bold" font-family="'Helvetica Neue', Helvetica, Arial-Unicode, Arial, Sans-serif">Created by AmruID</text><text x="0" y="52" fill="#000000" font-size="5px" font-weight="bold" font-family="'Helvetica Neue', Helvetica, Arial-Unicode, Arial, Sans-serif">from the Noun Project</text></svg>